<svg xmlns="http://www.w3.org/2000/svg" xmlns:xlink="http://www.w3.org/1999/xlink">
<defs>
<symbol id="icon-call" viewBox="0 0 32 32">
<path d="M24.438 30c-1.22 0-2.934-0.441-5.5-1.875-3.121-1.75-5.534-3.366-8.638-6.461-2.992-2.991-4.449-4.927-6.487-8.636-2.303-4.188-1.91-6.383-1.471-7.321 0.522-1.121 1.294-1.792 2.291-2.458 0.512-0.341 1.101-0.659 1.718-0.923l0.072-0.027c0.063-0.027 0.121-0.053 0.173-0.076 0.309-0.139 0.778-0.35 1.372-0.125 0.396 0.149 0.75 0.453 1.304 1 1.136 1.12 2.688 3.614 3.26 4.839 0.384 0.826 0.639 1.371 0.639 1.982 0 0.716-0.36 1.268-0.797 1.863-0.082 0.112-0.163 0.219-0.242 0.322-0.476 0.625-0.58 0.806-0.511 1.128 0.139 0.648 1.179 2.578 2.887 4.282s3.582 2.678 4.232 2.817c0.336 0.072 0.521-0.037 1.166-0.529 0.093-0.071 0.188-0.144 0.287-0.217 0.666-0.496 1.192-0.846 1.891-0.846h0.004c0.608 0 1.129 0.264 1.991 0.699 1.125 0.567 3.694 2.099 4.821 3.236 0.548 0.552 0.854 0.905 1.003 1.301 0.225 0.596 0.013 1.063-0.125 1.375-0.023 0.052-0.049 0.109-0.076 0.172-0.293 0.688-0.613 1.275-0.981 1.826l0.025-0.040c-0.664 0.994-1.337 1.763-2.461 2.286-0.527 0.255-1.147 0.405-1.802 0.405-0.016 0-0.032-0-0.048-0l0.002 0z"></path>
</symbol>
<symbol id="icon-location" viewBox="0 0 32 32">
<path d="M18 12c0 1.105-0.895 2-2 2s-2-0.895-2-2c0-1.105 0.895-2 2-2s2 0.895 2 2z"></path>
<path d="M16 2c-5.514 0-10 4.291-10 9.563 0 2.511 1.144 5.849 3.401 9.924 1.813 3.271 3.909 6.229 5 7.701 0.365 0.494 0.946 0.811 1.601 0.811s1.235-0.317 1.597-0.806l0.004-0.005c1.089-1.472 3.188-4.43 5-7.701 2.253-4.073 3.398-7.412 3.398-9.924 0-5.272-4.486-9.563-10-9.563zM16 16c-2.209 0-4-1.791-4-4s1.791-4 4-4c2.209 0 4 1.791 4 4v0c-0.003 2.208-1.792 3.998-4 4h-0z"></path>
</symbol>
<symbol id="icon-github" viewBox="0 0 32 32">
<path d="M16 2c-7.731 0-14 6.431-14 14.356 0 6.344 4.013 11.719 9.575 13.619 0.070 0.016 0.15 0.025 0.233 0.025 0.002 0 0.003 0 0.005 0h-0c0.519 0 0.719-0.381 0.719-0.712 0-0.344-0.012-1.244-0.019-2.444-0.423 0.104-0.91 0.165-1.41 0.169l-0.003 0c-2.694 0-3.306-2.094-3.306-2.094-0.638-1.656-1.556-2.1-1.556-2.1-1.219-0.856-0.006-0.881 0.088-0.881h0.006c1.406 0.125 2.144 1.488 2.144 1.488 0.7 1.225 1.637 1.569 2.475 1.569 0.583-0.012 1.132-0.149 1.624-0.385l-0.024 0.010c0.125-0.925 0.488-1.556 0.887-1.919-3.106-0.363-6.375-1.594-6.375-7.094 0-1.569 0.544-2.85 1.438-3.85-0.144-0.363-0.625-1.825 0.137-3.8 0.081-0.020 0.175-0.032 0.271-0.032 0.015 0 0.029 0 0.043 0.001l-0.002-0c0.506 0 1.65 0.194 3.537 1.506 1.051-0.306 2.258-0.481 3.506-0.481s2.455 0.176 3.598 0.504l-0.092-0.023c1.887-1.313 3.031-1.506 3.538-1.506 0.012-0 0.027-0.001 0.041-0.001 0.096 0 0.19 0.012 0.279 0.034l-0.008-0.002c0.762 1.975 0.281 3.438 0.137 3.8 0.894 1.006 1.438 2.287 1.438 3.85 0 5.513-3.275 6.725-6.394 7.081 0.5 0.444 0.95 1.319 0.95 2.656 0 1.919-0.019 3.469-0.019 3.938 0 0.337 0.194 0.719 0.712 0.719 0.002 0 0.003 0 0.005 0 0.087 0 0.171-0.009 0.253-0.026l-0.008 0.001c5.569-1.9 9.575-7.281 9.575-13.619 0-7.925-6.269-14.356-14-14.356z"></path>
</symbol>
<symbol id="icon-linkedin" viewBox="0 0 32 32">
<path d="M27.761 2h-23.368c-1.277 0-2.393 0.919-2.393 2.181v23.42c0 1.269 1.116 2.399 2.393 2.399h23.361c1.284 0 2.246-1.138 2.246-2.399v-23.42c0.008-1.262-0.962-2.181-2.239-2.181zM10.679 25.339h-4.011v-12.472h4.011zM8.813 10.971h-0.029c-1.284 0-2.115-0.956-2.115-2.152 0-1.218 0.853-2.151 2.166-2.151s2.116 0.926 2.144 2.151c-0.001 1.196-0.832 2.152-2.166 2.152zM25.339 25.339h-4.011v-6.819c0-1.634-0.584-2.75-2.035-2.75-1.109 0-1.765 0.75-2.057 1.481-0.109 0.262-0.139 0.62-0.139 0.985v7.104h-4.011v-12.472h4.011v1.736c0.584-0.831 1.496-2.027 3.617-2.027 2.633 0 4.625 1.736 4.625 5.478z"></path>
</symbol>
<symbol id="icon-mail" viewBox="0 0 32 32">
<path d="M26.5 5h-21c-1.932 0.002-3.498 1.568-3.5 3.5v15c0.002 1.932 1.568 3.498 3.5 3.5h21c1.932-0.002 3.498-1.568 3.5-3.5v-15c-0.002-1.932-1.568-3.498-3.5-3.5h-0zM25.614 10.789l-9 7c-0.168 0.131-0.381 0.21-0.614 0.21s-0.446-0.079-0.616-0.212l0.002 0.002-9-7c-0.242-0.184-0.397-0.473-0.397-0.798 0-0.552 0.448-1 1-1 0.237 0 0.455 0.083 0.627 0.221l-0.002-0.002 8.386 6.523 8.386-6.523c0.166-0.126 0.375-0.202 0.603-0.202 0.552 0 1 0.448 1 1 0 0.315-0.146 0.596-0.373 0.779l-0.002 0.002z"></path>
</symbol>
</defs>
</svg>
